<?xml version="1.0" encoding="utf-8"?>
<!-- Generator: Adobe Illustrator 26.3.1, SVG Export Plug-In . SVG Version: 6.00 Build 0)  -->
<svg version="1.1" id="Layer_1" xmlns="http://www.w3.org/2000/svg" xmlns:xlink="http://www.w3.org/1999/xlink" x="0px" y="0px"
	 viewBox="0 0 21 20" style="enable-background:new 0 0 21 20;" xml:space="preserve">
<path d="M15,4V2H7v2 M6,16c-1.1,0-2,0.9-2,2s0.9,2,2,2s2-0.9,2-2S7.1,16,6,16z M16,16c-1.1,0-2,0.9-2,2s0.9,2,2,2s2-0.9,2-2
	S17.1,16,16,16z M6.2,12.8v-0.1L7.1,11h7.4c0.7,0,1.4-0.4,1.7-1l3.9-7l-1.7-1l-3.9,7h-7L3.3,0H0v2h2l3.6,7.6L4.2,12
	C4.1,12.3,4,12.6,4,13c0,1.1,0.9,2,2,2h12v-2H6.4C6.3,13,6.2,12.9,6.2,12.8z"/>
</svg>
