<?xml version="1.0" encoding="utf-8"?>
<!-- Generator: Adobe Illustrator 26.3.1, SVG Export Plug-In . SVG Version: 6.00 Build 0)  -->
<svg version="1.1" id="Layer_1" xmlns="http://www.w3.org/2000/svg" xmlns:xlink="http://www.w3.org/1999/xlink" x="0px" y="0px"
	 viewBox="0 0 18 19" style="enable-background:new 0 0 18 19;" xml:space="preserve">
<style type="text/css">
	.st0{fill:#C08C06;}
</style>
<path class="st0" d="M17.5,13l-3.9-1.7c-0.1,0-0.2-0.1-0.4-0.1c-0.2,0-0.5,0.1-0.6,0.3l-1.8,2.1c-2.7-1.3-4.9-3.5-6.2-6.2l2.1-1.8
	C6.9,5.6,7,5.3,7,5C7,4.9,7,4.8,7,4.7L5.3,0.8C5.1,0.5,4.8,0.2,4.5,0.2c0,0-0.1,0-0.2,0L0.6,1.1C0.2,1.2,0,1.6,0,1.9
	c0,9,7.3,16.3,16.3,16.3c0.4,0,0.7-0.2,0.8-0.6L18,14c0-0.1,0-0.1,0-0.2C18,13.4,17.8,13.1,17.5,13z"/>
</svg>
