<?xml version="1.0" encoding="utf-8"?>
<!-- Generator: Adobe Illustrator 26.3.1, SVG Export Plug-In . SVG Version: 6.00 Build 0)  -->
<svg version="1.1" id="Layer_1" xmlns="http://www.w3.org/2000/svg" xmlns:xlink="http://www.w3.org/1999/xlink" x="0px" y="0px"
	 viewBox="0 0 12 12" style="enable-background:new 0 0 12 12;" xml:space="preserve">
<style type="text/css">
	.st0{fill:#ED3E3E;}
</style>
<path class="st0" d="M2.1,3C1.9,3,1.6,2.9,1.5,2.7C1.3,2.6,1.2,2.3,1.2,2.1c0-0.2,0.1-0.5,0.3-0.6c0.2-0.2,0.4-0.3,0.6-0.3
	c0.2,0,0.5,0.1,0.6,0.3C2.9,1.6,3,1.9,3,2.1c0,0.2-0.1,0.5-0.3,0.6C2.6,2.9,2.3,3,2.1,3z M11.6,5.7L6.2,0.3C6,0.1,5.7,0,5.4,0H1.2
	C0.5,0,0,0.5,0,1.2v4.2C0,5.7,0.1,6,0.4,6.2l5.4,5.4C6,11.9,6.3,12,6.6,12s0.6-0.1,0.8-0.4l4.2-4.2C11.9,7.2,12,6.9,12,6.6
	C12,6.3,11.9,6,11.6,5.7z"/>
</svg>
