<?xml version="1.0" encoding="utf-8"?>
<!-- Generator: Adobe Illustrator 26.3.1, SVG Export Plug-In . SVG Version: 6.00 Build 0)  -->
<svg version="1.1" id="Layer_1" xmlns="http://www.w3.org/2000/svg" xmlns:xlink="http://www.w3.org/1999/xlink" x="0px" y="0px"
	 viewBox="0 0 18 20" style="enable-background:new 0 0 18 20;" xml:space="preserve">
<style type="text/css">
	.st0{fill:#101828;}
</style>
<path class="st0" d="M13,15v-3H6V8h7V5l5,5L13,15z M11,0c0.5,0,1,0.2,1.4,0.6C12.8,1,13,1.5,13,2v2h-2V2H2v16h9v-2h2v2
	c0,0.5-0.2,1-0.6,1.4C12,19.8,11.5,20,11,20H2c-0.5,0-1-0.2-1.4-0.6C0.2,19,0,18.5,0,18V2c0-0.5,0.2-1,0.6-1.4C1,0.2,1.5,0,2,0H11z"
	/>
</svg>
