<?xml version="1.0" encoding="utf-8"?>
<!-- Generator: Adobe Illustrator 26.3.1, SVG Export Plug-In . SVG Version: 6.00 Build 0)  -->
<svg version="1.1" id="Layer_1" xmlns="http://www.w3.org/2000/svg" xmlns:xlink="http://www.w3.org/1999/xlink" x="0px" y="0px"
	 viewBox="0 0 32 32" style="enable-background:new 0 0 32 32;" xml:space="preserve">
<style type="text/css">
	.st0{fill:#101828;}
</style>
<path class="st0" d="M16,0c2.1,0,4.2,0.8,5.7,2.3C23.2,3.8,24,5.9,24,8c0,2.1-0.8,4.2-2.3,5.7C20.2,15.2,18.1,16,16,16
	s-4.2-0.8-5.7-2.3C8.8,12.2,8,10.1,8,8c0-2.1,0.8-4.2,2.3-5.7C11.8,0.8,13.9,0,16,0z M16,20c8.8,0,16,3.6,16,8v4H0v-4
	C0,23.6,7.2,20,16,20z"/>
</svg>
