<?xml version="1.0" encoding="utf-8"?>
<!-- Generator: Adobe Illustrator 26.3.1, SVG Export Plug-In . SVG Version: 6.00 Build 0)  -->
<svg version="1.1" id="Layer_1" xmlns="http://www.w3.org/2000/svg" xmlns:xlink="http://www.w3.org/1999/xlink" x="0px" y="0px"
	 viewBox="0 0 32 32" style="enable-background:new 0 0 32 32;" xml:space="preserve">
<style type="text/css">
	.st0{fill:#101828;}
</style>
<path class="st0" d="M24,16.1v-4.9h3.2v4.9c-0.5-0.1-1.1-0.1-1.6-0.1C25.1,16,24.5,16.1,24,16.1z M10.4,12.8c-0.4,0-0.8,0.4-0.8,0.8
	V16h9.6v-2.4c0-0.4-0.4-0.8-0.8-0.8H10.4z M28.8,9.6H0V0h28.8V9.6z M25.6,3.2H3.2v3.2h22.4V3.2z M4.8,25.6V11.2H1.6v17.6h15
	c-0.4-1-0.6-2.1-0.6-3.2H4.8z M27.2,24v-4.8H24V24h-4.8v3.2H24V32h3.2v-4.8H32V24H27.2z"/>
</svg>
