<?xml version="1.0" encoding="utf-8"?>
<!-- Generator: Adobe Illustrator 26.3.1, SVG Export Plug-In . SVG Version: 6.00 Build 0)  -->
<svg version="1.1" id="Layer_1" xmlns="http://www.w3.org/2000/svg" xmlns:xlink="http://www.w3.org/1999/xlink" x="0px" y="0px"
	 viewBox="0 0 32 24" style="enable-background:new 0 0 32 24;" xml:space="preserve">
<style type="text/css">
	.st0{fill:#101828;}
</style>
<path class="st0" d="M29.3,0H2.7C1.2,0.1,0.1,1.2,0,2.7v18.7c0.1,1.5,1.2,2.6,2.7,2.7h26.7c1.5-0.1,2.6-1.2,2.7-2.7V2.7
	C31.9,1.2,30.8,0.1,29.3,0z M29.3,21.3H2.7V2.7h26.7V21.3z M18.7,18.7V17c0-2.2-4.5-3.3-6.7-3.3c-2.2,0-6.7,1.1-6.7,3.3v1.7H18.7z
	 M12,5.3c-0.9,0-1.7,0.4-2.4,1c-0.6,0.6-1,1.5-1,2.4c0,0.4,0.1,0.9,0.3,1.3c0.2,0.4,0.4,0.8,0.7,1.1c0.6,0.6,1.5,1,2.4,1
	c0.4,0,0.9-0.1,1.3-0.3c0.4-0.2,0.8-0.4,1.1-0.7c0.3-0.3,0.6-0.7,0.7-1.1c0.2-0.4,0.3-0.8,0.3-1.3c0-0.4-0.1-0.9-0.3-1.3
	c-0.2-0.4-0.4-0.8-0.7-1.1C14,6,13.7,5.8,13.3,5.6C12.9,5.4,12.4,5.3,12,5.3z M18.7,5.3v1.3h8V5.3H18.7z M18.7,8v1.3h8V8H18.7z
	 M18.7,10.7V12H24v-1.3H18.7z"/>
</svg>
