<?xml version="1.0" encoding="utf-8"?>
<!-- Generator: Adobe Illustrator 26.3.1, SVG Export Plug-In . SVG Version: 6.00 Build 0)  -->
<svg version="1.1" id="Layer_1" xmlns="http://www.w3.org/2000/svg" xmlns:xlink="http://www.w3.org/1999/xlink" x="0px" y="0px"
	 viewBox="0 0 15 16" style="enable-background:new 0 0 15 16;" xml:space="preserve">
<style type="text/css">
	.st0{fill:#FFFFFF;}
</style>
<path class="st0" d="M13.3,0.5H1.7C0.7,0.5,0,1.2,0,2.2v3.3h1.7V2.2h11.7v11.7H1.7v-3.3H0v3.3c0,0.4,0.2,0.9,0.5,1.2
	c0.3,0.3,0.7,0.5,1.2,0.5h11.7c0.4,0,0.9-0.2,1.2-0.5c0.3-0.3,0.5-0.7,0.5-1.2V2.2C15,1.2,14.2,0.5,13.3,0.5z M5.9,11l1.2,1.2
	L11.2,8L7.1,3.8L5.9,5l2.2,2.2H0v1.7h8.1L5.9,11z"/>
</svg>
