<?xml version="1.0" encoding="utf-8"?>
<!-- Generator: Adobe Illustrator 26.3.1, SVG Export Plug-In . SVG Version: 6.00 Build 0)  -->
<svg version="1.1" id="Layer_1" xmlns="http://www.w3.org/2000/svg" xmlns:xlink="http://www.w3.org/1999/xlink" x="0px" y="0px"
	 viewBox="0 0 33.3 26.7" style="enable-background:new 0 0 33.3 26.7;" xml:space="preserve">
<path d="M2.8,26.7c-0.8,0-1.4-0.3-2-0.8c-0.6-0.6-0.8-1.2-0.8-2V2.9c0-0.8,0.3-1.4,0.8-2c0.6-0.6,1.2-0.8,2-0.8h27.8
	c0.8,0,1.4,0.3,2,0.8c0.6,0.6,0.8,1.2,0.8,2v21.1c0,0.8-0.3,1.4-0.8,2c-0.6,0.6-1.2,0.8-2,0.8H2.8z M2.8,12.8h27.8V7H2.8V12.8z"/>
</svg>
