<?xml version="1.0" encoding="utf-8"?>
<!-- Generator: Adobe Illustrator 26.3.1, SVG Export Plug-In . SVG Version: 6.00 Build 0)  -->
<svg version="1.1" id="Layer_1" xmlns="http://www.w3.org/2000/svg" xmlns:xlink="http://www.w3.org/1999/xlink" x="0px" y="0px"
	 viewBox="0 0 26.7 26.1" style="enable-background:new 0 0 26.7 26.1;" xml:space="preserve">
<path d="M13.3,12.8c-1.8,0-3.4-0.6-4.6-1.8C7.6,9.7,7,8.2,7,6.4S7.6,3,8.8,1.8C10,0.6,11.5,0,13.3,0s3.4,0.6,4.6,1.8
	c1.2,1.2,1.8,2.7,1.8,4.6s-0.6,3.4-1.8,4.6C16.7,12.1,15.2,12.8,13.3,12.8z M0,26.1V22c0-1,0.3-1.9,0.8-2.7c0.5-0.8,1.2-1.3,2-1.7
	c1.8-0.8,3.6-1.5,5.3-1.9c1.7-0.4,3.5-0.6,5.2-0.6s3.5,0.2,5.2,0.6c1.7,0.4,3.5,1.1,5.3,1.9c0.8,0.4,1.5,1,2,1.7
	c0.5,0.8,0.8,1.7,0.8,2.7v4.2H0z"/>
</svg>
