<?xml version="1.0" encoding="utf-8"?>
<!-- Generator: Adobe Illustrator 26.3.1, SVG Export Plug-In . SVG Version: 6.00 Build 0)  -->
<svg version="1.1" id="Layer_1" xmlns="http://www.w3.org/2000/svg" xmlns:xlink="http://www.w3.org/1999/xlink" x="0px" y="0px"
	 viewBox="0 0 33.4 33.3" style="enable-background:new 0 0 33.4 33.3;" xml:space="preserve">
<path d="M20.1,32.5c-0.6,0.5-1.2,0.8-2,0.8c-0.8,0-1.5-0.3-2-0.8L0.8,17.2c-0.3-0.3-0.5-0.6-0.6-0.9C0.1,15.9,0,15.6,0,15.2V2.8
	c0-0.8,0.3-1.5,0.8-2S2,0,2.8,0h12.4c0.4,0,0.7,0.1,1.1,0.2c0.4,0.1,0.7,0.3,1,0.6l15.2,15.3c0.6,0.6,0.8,1.2,0.8,2
	c0,0.8-0.3,1.5-0.8,2L20.1,32.5z M7.1,9.3c0.6,0,1.1-0.2,1.6-0.7c0.5-0.4,0.7-1,0.7-1.6c0-0.6-0.2-1.1-0.7-1.6
	C8.2,5,7.7,4.8,7.1,4.8C6.5,4.8,5.9,5,5.5,5.5C5,5.9,4.8,6.4,4.8,7c0,0.6,0.2,1.2,0.7,1.6C5.9,9.1,6.5,9.3,7.1,9.3z"/>
</svg>
