<?xml version="1.0" encoding="utf-8"?>
<!-- Generator: Adobe Illustrator 26.3.1, SVG Export Plug-In . SVG Version: 6.00 Build 0)  -->
<svg version="1.1" id="Layer_1" xmlns="http://www.w3.org/2000/svg" xmlns:xlink="http://www.w3.org/1999/xlink" x="0px" y="0px"
	 viewBox="0 0 20 20" style="enable-background:new 0 0 20 20;" xml:space="preserve">
<style type="text/css">
	.st0{fill:#121212;}
</style>
<path class="st0" d="M5.8,0h8.4C17.4,0,20,2.6,20,5.8v8.4c0,1.5-0.6,3-1.7,4.1c-1.1,1.1-2.6,1.7-4.1,1.7H5.8C2.6,20,0,17.4,0,14.2
	V5.8c0-1.5,0.6-3,1.7-4.1S4.3,0,5.8,0z M5.6,2c-1,0-1.9,0.4-2.5,1.1C2.4,3.7,2,4.6,2,5.6v8.8c0,2,1.6,3.6,3.6,3.6h8.8
	c1,0,1.9-0.4,2.5-1.1s1.1-1.6,1.1-2.5V5.6c0-2-1.6-3.6-3.6-3.6H5.6z M15.2,3.5c0.3,0,0.6,0.1,0.9,0.4s0.4,0.6,0.4,0.9
	s-0.1,0.6-0.4,0.9C15.9,5.9,15.6,6,15.2,6s-0.6-0.1-0.9-0.4C14.1,5.4,14,5.1,14,4.8s0.1-0.6,0.4-0.9C14.6,3.6,14.9,3.5,15.2,3.5z
	 M10,5c1.3,0,2.6,0.5,3.5,1.5C14.5,7.4,15,8.7,15,10c0,1.3-0.5,2.6-1.5,3.5C12.6,14.5,11.3,15,10,15c-1.3,0-2.6-0.5-3.5-1.5
	C5.5,12.6,5,11.3,5,10c0-1.3,0.5-2.6,1.5-3.5C7.4,5.5,8.7,5,10,5z M10,7C9.2,7,8.4,7.3,7.9,7.9S7,9.2,7,10c0,0.8,0.3,1.6,0.9,2.1
	S9.2,13,10,13c0.8,0,1.6-0.3,2.1-0.9S13,10.8,13,10c0-0.8-0.3-1.6-0.9-2.1S10.8,7,10,7z"/>
</svg>
