<?xml version="1.0" encoding="utf-8"?>
<!-- Generator: Adobe Illustrator 26.3.1, SVG Export Plug-In . SVG Version: 6.00 Build 0)  -->
<svg version="1.1" id="Layer_1" xmlns="http://www.w3.org/2000/svg" xmlns:xlink="http://www.w3.org/1999/xlink" x="0px" y="0px"
	 viewBox="0 0 137.7 86.9" style="enable-background:new 0 0 137.7 86.9;" xml:space="preserve">
<style type="text/css">
	.st0{fill:#E5F8FF;}
	.st1{fill:#00AEEF;}
	.st2{fill-rule:evenodd;clip-rule:evenodd;fill:#FFFFFF;}
	.st3{fill-rule:evenodd;clip-rule:evenodd;fill:#E5F8FF;}
	.st4{fill:#FFFFFF;}
	.st5{fill:#2DC6FF;}
</style>
<g>
	<path class="st0" d="M69.5,68.2c18.5,0,33.5-15,33.5-33.5S88,1.2,69.5,1.2S36,16.2,36,34.8C36,53.3,51,68.2,69.5,68.2z"/>
	<path class="st1" d="M69.5,69.5c-19.2,0-34.8-15.6-34.8-34.8S50.3,0,69.5,0s34.8,15.6,34.8,34.8S88.6,69.5,69.5,69.5z M69.5,2.5
		C51.7,2.5,37.2,17,37.2,34.8C37.2,52.5,51.7,67,69.5,67s32.2-14.5,32.2-32.2C101.7,17,87.3,2.5,69.5,2.5z"/>
</g>
<path class="st2" d="M64.1,60.7c1.8,0.3,3.5,0.5,5.4,0.5C84.1,61.2,96,49.4,96,34.8C96,20.1,84.1,8.2,69.5,8.2
	c-3.8,0-7.3,0.8-10.6,2.2c-5.6,2.5-10.2,6.8-13,12.2C44,26.3,43,30.4,43,34.8c0,3.9,0.9,7.7,2.4,11c1.1,2.4,2.6,4.6,4.3,6.6"/>
<path class="st1" d="M69.5,62.5c-1.9,0-3.8-0.2-5.6-0.5c-0.7-0.1-1.1-0.8-1-1.5s0.8-1.1,1.5-1c1.7,0.3,3.4,0.5,5.1,0.5
	c13.9,0,25.2-11.3,25.2-25.2S83.4,9.5,69.5,9.5c-3.5,0-6.9,0.7-10.1,2.1C54,13.9,49.6,18.1,47,23.3c-1.8,3.6-2.8,7.4-2.8,11.5
	c0,3.7,0.8,7.2,2.3,10.5c1,2.3,2.4,4.4,4.1,6.2c0.5,0.5,0.4,1.3-0.1,1.8s-1.3,0.4-1.8-0.1c-1.8-2.1-3.3-4.4-4.5-6.9
	c-1.7-3.6-2.5-7.5-2.5-11.6c0-4.4,1-8.7,3-12.6c2.9-5.7,7.8-10.3,13.6-12.8C61.9,7.8,65.6,7,69.5,7c15.3,0,27.8,12.4,27.8,27.8
	C97.2,50.1,84.8,62.5,69.5,62.5z"/>
<path class="st1" d="M60,60.7c-0.1,0-0.3,0-0.4-0.1c-2.7-1-5.3-2.5-7.5-4.4c-0.5-0.4-0.6-1.2-0.2-1.8c0.4-0.5,1.2-0.6,1.8-0.2
	c2.1,1.7,4.4,3,6.9,4c0.6,0.2,1,1,0.7,1.6C60.9,60.4,60.5,60.7,60,60.7z"/>
<rect x="98.7" y="60" transform="matrix(0.7071 -0.7071 0.7071 0.7071 -16.1661 89.5016)" class="st1" width="2.5" height="8.5"/>
<g>
	<path class="st3" d="M102,66.3c-1.9,1.9-1.9,5,0,6.9l11.1,11.1c1.9,1.9,5,1.9,6.9,0s1.9-5,0-6.9l-11.1-11.1
		C107,64.4,103.9,64.4,102,66.3z"/>
	<path class="st1" d="M116.5,86.9c-1.6,0-3.2-0.6-4.3-1.8L101.1,74c-1.2-1.2-1.8-2.7-1.8-4.3c0-1.6,0.6-3.2,1.8-4.3
		c2.4-2.4,6.2-2.4,8.6,0l11.1,11.1c1.2,1.2,1.8,2.7,1.8,4.3c0,1.6-0.6,3.2-1.8,4.3C119.7,86.3,118.1,86.9,116.5,86.9z M105.4,66.1
		c-1,0-1.9,0.4-2.5,1.1l0,0c-0.7,0.7-1.1,1.6-1.1,2.5c0,1,0.4,1.9,1.1,2.5L114,83.3c1.4,1.4,3.7,1.4,5.1,0c0.7-0.7,1.1-1.6,1.1-2.5
		c0-1-0.4-1.9-1.1-2.5L108,67.2C107.3,66.5,106.4,66.1,105.4,66.1z"/>
</g>
<path class="st4" d="M118,80.5c-0.3,0-0.6-0.1-0.9-0.4l-11-11c-0.5-0.5-0.5-1.3,0-1.8s1.3-0.5,1.8,0l11,11c0.5,0.5,0.5,1.3,0,1.8
	C118.6,80.4,118.3,80.5,118,80.5z"/>
<path class="st3" d="M63,23.2c0,11.6,9.4,21,21,21c2.3,0,4.5-0.4,6.5-1c-3.4,8.3-11.5,14.2-21,14.2c-12.5,0-22.7-10.1-22.7-22.7
	c0-11.3,8.3-20.7,19.2-22.4C64.1,15.5,63,19.3,63,23.2z"/>
<path class="st5" d="M51,36.5c-0.7,0-1.2-0.6-1.2-1.2c0-8.2,4.9-15.5,12.4-18.7c0.6-0.3,1.4,0,1.6,0.7c0.3,0.6,0,1.4-0.7,1.6
	c-6.6,2.8-10.9,9.2-10.9,16.4C52.2,35.9,51.7,36.5,51,36.5z M66.2,17.9c-0.6,0-1.1-0.4-1.2-1c-0.1-0.7,0.3-1.3,1-1.5
	c1.3-0.3,2.6-0.4,4-0.4c0.7,0,1.2,0.6,1.2,1.2s-0.6,1.2-1.2,1.2c-1.2,0-2.3,0.1-3.5,0.3C66.4,17.9,66.3,17.9,66.2,17.9z"/>
<path class="st5" d="M123.1,36.3H115c-0.7,0-1.2-0.6-1.2-1.2s0.6-1.2,1.2-1.2h8.2c0.7,0,1.2,0.6,1.2,1.2S123.8,36.3,123.1,36.3z
	 M136.5,28.5h-2.2c-0.7,0-1.2-0.6-1.2-1.2s0.6-1.2,1.2-1.2h2.2c0.7,0,1.2,0.6,1.2,1.2S137.2,28.5,136.5,28.5z M129.5,28.5h-17.2
	c-0.7,0-1.2-0.6-1.2-1.2s0.6-1.2,1.2-1.2h17.2c0.7,0,1.2,0.6,1.2,1.2S130.2,28.5,129.5,28.5z"/>
<path class="st5" d="M33.1,58.3H25c-0.7,0-1.2-0.6-1.2-1.2s0.6-1.2,1.2-1.2h8.2c0.7,0,1.2,0.6,1.2,1.2S33.8,58.3,33.1,58.3z
	 M28.5,49.5H11.3c-0.7,0-1.2-0.6-1.2-1.2s0.6-1.2,1.2-1.2h17.2c0.7,0,1.2,0.6,1.2,1.2S29.2,49.5,28.5,49.5z M5.5,49.5H1.2
	c-0.7,0-1.2-0.6-1.2-1.2S0.6,47,1.2,47h4.2c0.7,0,1.2,0.6,1.2,1.2S6.2,49.5,5.5,49.5z"/>
</svg>
