<?xml version="1.0" encoding="utf-8"?>
<!-- Generator: Adobe Illustrator 26.3.1, SVG Export Plug-In . SVG Version: 6.00 Build 0)  -->
<svg version="1.1" id="Layer_1" xmlns="http://www.w3.org/2000/svg" xmlns:xlink="http://www.w3.org/1999/xlink" x="0px" y="0px"
	 viewBox="0 0 109.2 79.3" style="enable-background:new 0 0 109.2 79.3;" xml:space="preserve">
<style type="text/css">
	.st0{fill-rule:evenodd;clip-rule:evenodd;fill:#FFFFFF;}
	.st1{fill:#00AEEF;}
	.st2{fill-rule:evenodd;clip-rule:evenodd;fill:#E5F8FF;}
	.st3{fill:#FFFFFF;}
	.st4{fill:#E5F8FF;}
</style>
<g>
	<path class="st0" d="M3.2,14.8l83-13.3c1.6-0.3,3.2,0.9,3.4,2.5c0,0,0,0,0,0l8.1,51.8c0.3,1.6-0.9,3.2-2.5,3.4l-83,13.3
		c-1.6,0.3-3.2-0.9-3.4-2.5c0,0,0,0,0,0L0.7,18.2C0.5,16.6,1.6,15,3.2,14.8z"/>
	<path class="st1" d="M12.8,73.5c-1.1,0-2.1-0.3-3-1c-1.2-0.9-1.9-2.1-2.2-3.6L0.1,19.5c-0.4-2.9,1.5-5.7,4.4-6.2L84.6,0.1
		C86-0.2,87.3,0.2,88.5,1c1.2,0.9,1.9,2.1,2.2,3.6l0.8,5.3c0.1,0.7-0.4,1.3-1,1.4c-0.7,0.1-1.3-0.4-1.4-1L88.2,5
		C88,4.2,87.6,3.5,87,3c-0.6-0.4-1.3-0.6-2-0.5L4.8,15.8c-1.5,0.2-2.5,1.8-2.3,3.4l7.5,49.4c0.1,0.8,0.5,1.5,1.2,1.9
		c0.6,0.4,1.3,0.6,2,0.5l3.2-0.5c0.7-0.1,1.3,0.3,1.4,1c0.1,0.7-0.3,1.3-1,1.4l-3.2,0.5C13.3,73.5,13.1,73.5,12.8,73.5z M91.2,18.2
		c-0.6,0-1.1-0.4-1.2-1.1L89.5,14c-0.1-0.7,0.4-1.3,1-1.4c0.7-0.1,1.3,0.4,1.4,1l0.5,3.1c0.1,0.7-0.4,1.3-1,1.4
		C91.4,18.2,91.3,18.2,91.2,18.2z"/>
	<path class="st2" d="M7.2,17L83,5.2c1.6-0.3,3.2,0.9,3.4,2.5l7.4,45.8c0.3,1.6-0.9,3.2-2.5,3.4c0,0,0,0,0,0L15.5,68.8
		c-1.6,0.3-3.2-0.9-3.4-2.5L4.7,20.5C4.5,18.8,5.6,17.3,7.2,17C7.2,17,7.2,17,7.2,17z"/>
	<g>
		<path class="st3" d="M104,21.5H25.5c-2.2,0-4,1.8-4,4V74c0,2.2,1.8,4,4,4H104c2.2,0,4-1.8,4-4V25.5C108,23.3,106.2,21.5,104,21.5z
			"/>
		<path class="st1" d="M104,79.3H25.5c-2.9,0-5.2-2.4-5.2-5.2V25.5c0-2.9,2.4-5.2,5.2-5.2H104c2.9,0,5.2,2.4,5.2,5.2V74
			C109.2,76.9,106.9,79.3,104,79.3z M25.5,22.8c-1.5,0-2.8,1.2-2.8,2.8V74c0,1.5,1.2,2.8,2.8,2.8H104c1.5,0,2.8-1.2,2.8-2.8V25.5
			c0-1.5-1.2-2.8-2.8-2.8H25.5z"/>
	</g>
	<path class="st4" d="M106.7,33.3h-84v14h84V33.3z"/>
	<path class="st1" d="M58.3,66.5H30c-0.7,0-1.2-0.6-1.2-1.2S29.3,64,30,64h28.3c0.7,0,1.3,0.6,1.3,1.2S59,66.5,58.3,66.5z
		 M101.4,47.5H22.6c-0.7,0-1.2-0.6-1.2-1.2s0.6-1.2,1.2-1.2h78.8c0.7,0,1.2,0.6,1.2,1.2S102.1,47.5,101.4,47.5z M107.4,34.5H41.6
		c-0.7,0-1.2-0.6-1.2-1.2s0.6-1.2,1.2-1.2h65.8c0.7,0,1.2,0.6,1.2,1.2S108.1,34.5,107.4,34.5z M36.5,34.5h-7.2
		c-0.7,0-1.2-0.6-1.2-1.2s0.6-1.2,1.2-1.2h7.2c0.7,0,1.2,0.6,1.2,1.2S37.2,34.5,36.5,34.5z"/>
</g>
</svg>
