<?xml version="1.0" encoding="utf-8"?>
<!-- Generator: Adobe Illustrator 26.3.1, SVG Export Plug-In . SVG Version: 6.00 Build 0)  -->
<svg version="1.1" id="Layer_1" xmlns="http://www.w3.org/2000/svg" xmlns:xlink="http://www.w3.org/1999/xlink" x="0px" y="0px"
	 viewBox="0 0 148.4 121.4" style="enable-background:new 0 0 148.4 121.4;" xml:space="preserve">
<style type="text/css">
	.st0{fill:#00AEEF;}
	.st1{fill:#6AD7FF;}
	.st2{fill-rule:evenodd;clip-rule:evenodd;fill:#E5F8FF;}
	.st3{fill:#FFFFFF;}
	.st4{fill:#E5F8FF;}
</style>
<g>
	<path class="st0" d="M147.1,111.5h-2.9c-0.7,0-1.2-0.6-1.2-1.2s0.6-1.2,1.2-1.2h2.9c0.7,0,1.2,0.6,1.2,1.2S147.8,111.5,147.1,111.5
		z M139.5,111.5h-22.4c-0.7,0-1.2-0.6-1.2-1.2s0.6-1.2,1.2-1.2h22.4c0.7,0,1.2,0.6,1.2,1.2S140.2,111.5,139.5,111.5z M35.6,111.5
		H14.1c-0.7,0-1.2-0.6-1.2-1.2s0.6-1.2,1.2-1.2h21.5c0.7,0,1.2,0.6,1.2,1.2S36.3,111.5,35.6,111.5z M8.1,111.5H1.2
		c-0.7,0-1.2-0.6-1.2-1.2s0.6-1.2,1.2-1.2h6.9c0.7,0,1.2,0.6,1.2,1.2S8.8,111.5,8.1,111.5z"/>
	<path class="st1" d="M59.2,19.3c-0.3,0-0.7-0.1-0.9-0.4L47.2,6.4c-0.5-0.5-0.4-1.3,0.1-1.8s1.3-0.4,1.8,0.1l11.1,12.5
		c0.5,0.5,0.4,1.3-0.1,1.8C59.8,19.2,59.5,19.3,59.2,19.3z M89.1,19.3c-0.3,0-0.6-0.1-0.8-0.3c-0.3-0.2-0.4-0.6-0.4-0.9
		s0.1-0.6,0.3-0.8L99.3,4.7c0.5-0.5,1.3-0.6,1.8-0.1c0.3,0.2,0.4,0.6,0.4,0.9s-0.1,0.6-0.3,0.8L90.1,18.8
		C89.8,19.1,89.5,19.3,89.1,19.3z M74.1,19.3c-0.7,0-1.2-0.6-1.2-1.2V1.2c0-0.7,0.6-1.2,1.2-1.2s1.2,0.6,1.2,1.2V18
		C75.4,18.7,74.8,19.3,74.1,19.3z"/>
	<path class="st2" d="M42.9,33.2h62.6l-5.6,8.4l7.5,5.6H41l8.4-5.6L42.9,33.2z"/>
	<path class="st3" d="M41.1,45.2h67c1.1,0,2,0.9,2,2v71c0,1.1-0.9,2-2,2h-67c-1.1,0-2-0.9-2-2v-71C39.1,46.1,40,45.2,41.1,45.2z"/>
	<path class="st2" d="M43.7,86.3V51.9c0-1.4,1.2-2.6,2.6-2.6l61,64.1c0,1.9-1.5,3.4-3.4,3.4H47.1c-1.9,0-3.4-1.5-3.4-3.4v-12.8v-3.5
		C43.7,97.1,43.7,86.3,43.7,86.3z M43.7,93.7v-3.8V93.7z"/>
	<path class="st0" d="M106,121.4H43.8c-2.7,0-4.9-2.2-4.9-5V98.7c0-0.7,0.6-1.2,1.2-1.2s1.2,0.6,1.2,1.2v17.8c0,1.4,1.1,2.5,2.4,2.5
		H106c1.3,0,2.4-1.1,2.4-2.5V48.2c0-0.3-0.3-0.6-0.6-0.6H43c-0.9,0-1.6,0.7-1.6,1.6v37.6c0,0.7-0.6,1.2-1.2,1.2S39,87.4,39,86.8
		V49.1c0-2.2,1.8-4.1,4.1-4.1H108c1.7,0,3.1,1.4,3.1,3.1v68.2C111,119.2,108.8,121.4,106,121.4z M40.1,96.1c-0.7,0-1.2-0.6-1.2-1.2
		v-4.2c0-0.7,0.6-1.2,1.2-1.2s1.2,0.6,1.2,1.2v4.2C41.4,95.5,40.8,96.1,40.1,96.1z"/>
	<path class="st0" d="M108.6,46.3h-2.5V35.1c0-0.4-0.2-0.6-0.4-0.6h-62c-0.2,0-0.4,0.3-0.4,0.6v11.2h-2.5V35.1
		c0-1.7,1.3-3.1,2.9-3.1h62.1c1.6,0,2.9,1.4,2.9,3.1v11.2H108.6z"/>
	<g>
		<path class="st4" d="M59.3,66c1.8,0,3.3-1.5,3.3-3.3s-1.5-3.3-3.3-3.3S56,60.9,56,62.7S57.5,66,59.3,66z"/>
		<path class="st0" d="M59.3,67.2c-2.5,0-4.5-2-4.5-4.5s2-4.5,4.5-4.5s4.5,2,4.5,4.5S61.8,67.2,59.3,67.2z M59.3,60.7
			c-1.1,0-2,0.9-2,2s0.9,2,2,2s2-0.9,2-2S60.4,60.7,59.3,60.7z"/>
	</g>
	<g>
		<path class="st4" d="M90.1,66c1.8,0,3.3-1.5,3.3-3.3s-1.5-3.3-3.3-3.3s-3.3,1.5-3.3,3.3C86.8,64.5,88.3,66,90.1,66z"/>
		<path class="st0" d="M90.1,67.2c-2.5,0-4.5-2-4.5-4.5s2-4.5,4.5-4.5s4.5,2,4.5,4.5S92.6,67.2,90.1,67.2z M90.1,60.7
			c-1.1,0-2,0.9-2,2s0.9,2,2,2s2-0.9,2-2S91.2,60.7,90.1,60.7z"/>
	</g>
	<path class="st0" d="M74.7,82.2c-8.9,0-16.2-7.3-16.2-16.2c0-0.7,0.6-1.2,1.2-1.2S61,65.3,61,66c0,7.6,6.1,13.7,13.7,13.7
		S88.4,73.6,88.4,66c0-0.7,0.6-1.2,1.2-1.2s1.2,0.6,1.2,1.2C90.9,74.9,83.6,82.2,74.7,82.2z"/>
	<path class="st0" d="M42,47.6c-0.4,0-0.9-0.2-1.1-0.6c-0.3-0.6-0.1-1.4,0.5-1.7l7.1-3.9l-6.3-6.3c-0.5-0.5-0.5-1.3,0-1.8
		s1.3-0.5,1.8,0l6.6,6.5c0.4,0.4,0.7,1,0.7,1.6s-0.2,1.2-0.6,1.6c-0.2,0.2-0.3,0.3-0.5,0.4l-7.4,4.1C42.4,47.5,42.2,47.6,42,47.6z
		 M48.7,41.6L48.7,41.6L48.7,41.6z"/>
	<path class="st0" d="M108,47.6c-0.2,0-0.4,0-0.6-0.2l-7.5-4.1c-0.2-0.1-0.3-0.2-0.5-0.4c-0.4-0.4-0.7-1-0.7-1.6s0.2-1.2,0.6-1.6
		l6.3-6.4c0.5-0.5,1.3-0.5,1.8,0s0.5,1.3,0,1.8l-6.1,6.2l7.2,3.9c0.6,0.3,0.8,1.1,0.5,1.7C108.9,47.3,108.4,47.6,108,47.6z"/>
</g>
</svg>
