<?xml version="1.0" encoding="utf-8"?>
<!-- Generator: Adobe Illustrator 26.3.1, SVG Export Plug-In . SVG Version: 6.00 Build 0)  -->
<svg version="1.1" id="Layer_1" xmlns="http://www.w3.org/2000/svg" xmlns:xlink="http://www.w3.org/1999/xlink" x="0px" y="0px"
	 viewBox="0 0 46 46" style="enable-background:new 0 0 46 46;" xml:space="preserve">
<style type="text/css">
	.st0{fill:#F2F4F7;}
	.st1{clip-path:url(#SVGID_00000026144944181432237890000003191402845618007713_);}
	.st2{fill:none;stroke:#626366;stroke-width:1.6667;stroke-linecap:round;stroke-linejoin:round;}
	.st3{fill:none;stroke:#F9FAFB;stroke-width:6;}
</style>
<path class="st0" d="M23,3L23,3c11,0,20,9,20,20l0,0c0,11-9,20-20,20l0,0C12,43,3,34,3,23l0,0C3,12,12,3,23,3z"/>
<g>
	<defs>
		<rect id="SVGID_1_" x="13" y="13" width="20" height="20"/>
	</defs>
	<clipPath id="SVGID_00000034080497364909229780000008126516739859026816_">
		<use xlink:href="#SVGID_1_"  style="overflow:visible;"/>
	</clipPath>
	<g style="clip-path:url(#SVGID_00000034080497364909229780000008126516739859026816_);">
		<path class="st2" d="M26.3,26.3L23,23 M23,23l-3.3,3.3 M23,23v7.5 M30,28.3c0.8-0.4,1.5-1.1,1.8-2c0.4-0.8,0.4-1.8,0.2-2.7
			c-0.2-0.9-0.7-1.7-1.5-2.3c-0.7-0.6-1.6-0.9-2.6-0.9H27c-0.3-1-0.7-1.9-1.4-2.6c-0.7-0.8-1.5-1.4-2.4-1.8
			c-0.9-0.4-1.9-0.6-2.9-0.6c-1,0-2,0.3-2.9,0.8c-0.9,0.5-1.7,1.1-2.3,2c-0.6,0.8-1,1.8-1.2,2.7c-0.2,1-0.1,2,0.1,3
			c0.3,1,0.8,1.9,1.4,2.6"/>
	</g>
</g>
<path class="st3" d="M23,3L23,3c11,0,20,9,20,20l0,0c0,11-9,20-20,20l0,0C12,43,3,34,3,23l0,0C3,12,12,3,23,3z"/>
</svg>
