<?xml version="1.0" encoding="utf-8"?>
<!-- Generator: Adobe Illustrator 26.3.1, SVG Export Plug-In . SVG Version: 6.00 Build 0)  -->
<svg version="1.1" id="Layer_1" xmlns="http://www.w3.org/2000/svg" xmlns:xlink="http://www.w3.org/1999/xlink" x="0px" y="0px"
	 viewBox="0 0 24 24" style="enable-background:new 0 0 24 24;" xml:space="preserve">
<style type="text/css">
	.st0{clip-path:url(#SVGID_00000025422443696505901400000010835254178265679802_);}
	.st1{fill:#4285F4;}
	.st2{fill:#34A853;}
	.st3{fill:#FBBC04;}
	.st4{fill:#EA4335;}
</style>
<g>
	<defs>
		<rect id="SVGID_1_" width="24" height="24"/>
	</defs>
	<clipPath id="SVGID_00000103985886672542137490000015296259021947789184_">
		<use xlink:href="#SVGID_1_"  style="overflow:visible;"/>
	</clipPath>
	<g style="clip-path:url(#SVGID_00000103985886672542137490000015296259021947789184_);">
		<path class="st1" d="M23.8,12.3c0-0.8-0.1-1.6-0.2-2.4H12.2v4.6h6.5c-0.3,1.5-1.1,2.8-2.4,3.6v3h3.9C22.5,19,23.8,15.9,23.8,12.3z
			"/>
		<path class="st2" d="M12.2,24c3.2,0,6-1.1,8-2.9l-3.9-3c-1.1,0.7-2.5,1.1-4.1,1.1c-3.1,0-5.8-2.1-6.7-5h-4v3.1
			C3.6,21.4,7.7,24,12.2,24z"/>
		<path class="st3" d="M5.5,14.3C5,12.8,5,11.2,5.5,9.7V6.6h-4c-1.7,3.4-1.7,7.4,0,10.8L5.5,14.3z"/>
		<path class="st4" d="M12.2,4.7c1.7,0,3.4,0.6,4.6,1.8l3.4-3.4c-2.2-2-5-3.2-8-3.1C7.7,0,3.6,2.6,1.5,6.6l4,3.1
			C6.5,6.9,9.1,4.7,12.2,4.7z"/>
	</g>
</g>
</svg>
