<svg width="20" height="18" viewBox="0 0 20 18" fill="none" xmlns="http://www.w3.org/2000/svg">
<path d="M10 0C5.03013 0 0.963867 4.05723 0.963867 9.05422C0.963867 13.5723 4.2711 17.3223 8.59037 18V11.6747H6.29519V9.05422H8.59037V7.05723C8.59037 4.78916 9.93676 3.54217 12.006 3.54217C12.991 3.54217 14.0211 3.71386 14.0211 3.71386V5.94578H12.8825C11.7621 5.94578 11.4097 6.64157 11.4097 7.35542V9.05422H13.9217L13.5151 11.6747H11.4097V18C13.539 17.6637 15.4779 16.5773 16.8765 14.9368C18.275 13.2963 19.041 11.2099 19.0362 9.05422C19.0362 4.05723 14.9699 0 10 0Z" fill="white"/>
</svg>
