<?xml version="1.0" encoding="utf-8"?>
<!-- Generator: Adobe Illustrator 26.3.1, SVG Export Plug-In . SVG Version: 6.00 Build 0)  -->
<svg version="1.1" id="Layer_1" xmlns="http://www.w3.org/2000/svg" xmlns:xlink="http://www.w3.org/1999/xlink" x="0px" y="0px"
	 viewBox="0 0 17 24" style="enable-background:new 0 0 17 24;" xml:space="preserve">
<path d="M8.4,11.4c-0.8,0-1.6-0.3-2.1-0.9C5.7,10,5.4,9.2,5.4,8.4c0-0.8,0.3-1.6,0.9-2.1s1.3-0.9,2.1-0.9c0.8,0,1.6,0.3,2.1,0.9
	c0.6,0.6,0.9,1.3,0.9,2.1c0,0.4-0.1,0.8-0.2,1.1c-0.2,0.4-0.4,0.7-0.7,1c-0.3,0.3-0.6,0.5-1,0.7C9.2,11.3,8.8,11.4,8.4,11.4z M8.4,0
	C6.2,0,4,0.9,2.5,2.5C0.9,4,0,6.2,0,8.4C0,14.7,8.4,24,8.4,24s8.4-9.3,8.4-15.6c0-2.2-0.9-4.4-2.5-5.9C12.8,0.9,10.6,0,8.4,0z"/>
</svg>
