<?xml version="1.0" encoding="utf-8"?>
<!-- Generator: Adobe Illustrator 26.3.1, SVG Export Plug-In . SVG Version: 6.00 Build 0)  -->
<svg version="1.1" id="Layer_1" xmlns="http://www.w3.org/2000/svg" xmlns:xlink="http://www.w3.org/1999/xlink" x="0px" y="0px"
	 viewBox="0 0 19 18" style="enable-background:new 0 0 19 18;" xml:space="preserve">
<path d="M4.4,7.8c1.4,2.8,3.8,5.1,6.6,6.6l2.2-2.2c0.3-0.3,0.7-0.4,1-0.2c1.1,0.4,2.3,0.6,3.6,0.6c0.3,0,0.5,0.1,0.7,0.3
	s0.3,0.4,0.3,0.7V17c0,0.3-0.1,0.5-0.3,0.7S18.1,18,17.8,18c-4.5,0-8.8-1.8-12-5s-5-7.5-5-12c0-0.3,0.1-0.5,0.3-0.7
	C1.3,0.1,1.5,0,1.8,0h3.5C5.6,0,5.8,0.1,6,0.3C6.2,0.5,6.3,0.7,6.3,1c0,1.2,0.2,2.5,0.6,3.6c0.1,0.3,0,0.7-0.2,1L4.4,7.8z"/>
</svg>
